<svg xmlns="http://www.w3.org/2000/svg" width="1600" height="528"><rect width="100%" height="100%" fill="white"/><text x="20" y="28" font-size="20">Mean Latency Comparison (ns)</text><text x="10" y="62" font-size="11">Malloc_Churn&lt;64, 1, am, afree&gt;</text><rect x="520" y="50" width="0.1" height="6" fill="#264653"/><rect x="520" y="58" width="0.3" height="6" fill="#e76f51"/><text x="10" y="86" font-size="11">am_multithread&lt;8, 1000&gt;/t8</text><rect x="520" y="74" width="181.6" height="6" fill="#264653"/><rect x="520" y="82" width="836.6" height="6" fill="#e76f51"/><text x="10" y="110" font-size="11">am_multithread&lt;64, 1000&gt;/t8</text><rect x="520" y="98" width="215.5" height="6" fill="#264653"/><rect x="520" y="106" width="870.7" height="6" fill="#e76f51"/><text x="10" y="134" font-size="11">Malloc_Churn&lt;8, 256, am, afree&gt;</text><rect x="520" y="122" width="0.1" height="6" fill="#264653"/><rect x="520" y="130" width="0.2" height="6" fill="#e76f51"/><text x="10" y="158" font-size="11">Malloc_Churn&lt;8, 1024, am, afree&gt;</text><rect x="520" y="146" width="0.1" height="6" fill="#264653"/><rect x="520" y="154" width="0.3" height="6" fill="#e76f51"/><text x="10" y="182" font-size="11">Malloc_Churn&lt;64, 256, am, afree&gt;</text><rect x="520" y="170" width="0.1" height="6" fill="#264653"/><rect x="520" y="178" width="0.3" height="6" fill="#e76f51"/><text x="10" y="206" font-size="11">Malloc_Churn&lt;8, 1, am, afree&gt;</text><rect x="520" y="194" width="0.1" height="6" fill="#264653"/><rect x="520" y="202" width="0.2" height="6" fill="#e76f51"/><text x="10" y="230" font-size="11">am_multithread&lt;8, 1000&gt;/t1</text><rect x="520" y="218" width="149.0" height="6" fill="#264653"/><rect x="520" y="226" width="748.3" height="6" fill="#e76f51"/><text x="10" y="254" font-size="11">am_multithread&lt;64, 1000&gt;/t1</text><rect x="520" y="242" width="156.7" height="6" fill="#264653"/><rect x="520" y="250" width="755.5" height="6" fill="#e76f51"/><text x="10" y="278" font-size="11">afree_pair_random_size</text><rect x="520" y="266" width="0.3" height="6" fill="#264653"/><rect x="520" y="274" width="2.9" height="6" fill="#e76f51"/><text x="10" y="302" font-size="11">am_multithread&lt;8, 1000&gt;/t2</text><rect x="520" y="290" width="146.7" height="6" fill="#264653"/><rect x="520" y="298" width="755.9" height="6" fill="#e76f51"/><text x="10" y="326" font-size="11">am_multithread&lt;64, 1000&gt;/t2</text><rect x="520" y="314" width="156.5" height="6" fill="#264653"/><rect x="520" y="322" width="771.8" height="6" fill="#e76f51"/><text x="10" y="350" font-size="11">am_multithread&lt;8, 1000&gt;/t16</text><rect x="520" y="338" width="291.1" height="6" fill="#264653"/><rect x="520" y="346" width="856.0" height="6" fill="#e76f51"/><text x="10" y="374" font-size="11">am_multithread&lt;8, 1000&gt;/t4</text><rect x="520" y="362" width="153.5" height="6" fill="#264653"/><rect x="520" y="370" width="754.8" height="6" fill="#e76f51"/><text x="10" y="398" font-size="11">am_multithread&lt;64, 1000&gt;/t4</text><rect x="520" y="386" width="160.3" height="6" fill="#264653"/><rect x="520" y="394" width="772.6" height="6" fill="#e76f51"/><text x="10" y="422" font-size="11">am_multithread&lt;64, 1000&gt;/t16</text><rect x="520" y="410" width="357.8" height="6" fill="#264653"/><rect x="520" y="418" width="909.1" height="6" fill="#e76f51"/><text x="10" y="446" font-size="11">Malloc_Deep_Churn&lt;8, 2000, am, afree&gt;</text><rect x="520" y="434" width="303.6" height="6" fill="#264653"/><rect x="520" y="442" width="711.6" height="6" fill="#e76f51"/><text x="20" y="48" font-size="11" fill="#264653">am</text><text x="60" y="48" font-size="11" fill="#e76f51">std</text></svg>