<svg xmlns="http://www.w3.org/2000/svg" width="1600" height="518"><rect width="100%" height="100%" fill="white"/><text x="20" y="28" font-size="20">ammalloc vs std::malloc Speedup</text><text x="10" y="62" font-size="11">Malloc_Churn&lt;64, 1, am, afree&gt;</text><rect x="520" y="50" width="229.7" height="14" fill="#2a9d8f"/><text x="755.7" y="61" font-size="10">2.39x</text><text x="10" y="86" font-size="11">am_multithread&lt;8, 1000&gt;/t8</text><rect x="520" y="74" width="443.0" height="14" fill="#2a9d8f"/><text x="969.0" y="85" font-size="10">4.61x</text><text x="10" y="110" font-size="11">am_multithread&lt;64, 1000&gt;/t8</text><rect x="520" y="98" width="388.2" height="14" fill="#2a9d8f"/><text x="914.2" y="109" font-size="10">4.04x</text><text x="10" y="134" font-size="11">Malloc_Churn&lt;8, 256, am, afree&gt;</text><rect x="520" y="122" width="176.8" height="14" fill="#2a9d8f"/><text x="702.8" y="133" font-size="10">1.84x</text><text x="10" y="158" font-size="11">Malloc_Churn&lt;8, 1024, am, afree&gt;</text><rect x="520" y="146" width="183.5" height="14" fill="#2a9d8f"/><text x="709.5" y="157" font-size="10">1.91x</text><text x="10" y="182" font-size="11">Malloc_Churn&lt;64, 256, am, afree&gt;</text><rect x="520" y="170" width="201.8" height="14" fill="#2a9d8f"/><text x="727.8" y="181" font-size="10">2.10x</text><text x="10" y="206" font-size="11">Malloc_Churn&lt;8, 1, am, afree&gt;</text><rect x="520" y="194" width="183.5" height="14" fill="#2a9d8f"/><text x="709.5" y="205" font-size="10">1.91x</text><text x="10" y="230" font-size="11">am_multithread&lt;8, 1000&gt;/t1</text><rect x="520" y="218" width="482.4" height="14" fill="#2a9d8f"/><text x="1008.4" y="229" font-size="10">5.02x</text><text x="10" y="254" font-size="11">am_multithread&lt;64, 1000&gt;/t1</text><rect x="520" y="242" width="463.2" height="14" fill="#2a9d8f"/><text x="989.2" y="253" font-size="10">4.82x</text><text x="10" y="278" font-size="11">afree_pair_random_size</text><rect x="520" y="266" width="909.1" height="14" fill="#2a9d8f"/><text x="1435.1" y="277" font-size="10">9.46x</text><text x="10" y="302" font-size="11">am_multithread&lt;8, 1000&gt;/t2</text><rect x="520" y="290" width="494.9" height="14" fill="#2a9d8f"/><text x="1020.9" y="301" font-size="10">5.15x</text><text x="10" y="326" font-size="11">am_multithread&lt;64, 1000&gt;/t2</text><rect x="520" y="314" width="473.8" height="14" fill="#2a9d8f"/><text x="999.8" y="325" font-size="10">4.93x</text><text x="10" y="350" font-size="11">am_multithread&lt;8, 1000&gt;/t16</text><rect x="520" y="338" width="282.5" height="14" fill="#2a9d8f"/><text x="808.5" y="349" font-size="10">2.94x</text><text x="10" y="374" font-size="11">am_multithread&lt;8, 1000&gt;/t4</text><rect x="520" y="362" width="472.8" height="14" fill="#2a9d8f"/><text x="998.8" y="373" font-size="10">4.92x</text><text x="10" y="398" font-size="11">am_multithread&lt;64, 1000&gt;/t4</text><rect x="520" y="386" width="463.2" height="14" fill="#2a9d8f"/><text x="989.2" y="397" font-size="10">4.82x</text><text x="10" y="422" font-size="11">am_multithread&lt;64, 1000&gt;/t16</text><rect x="520" y="410" width="244.1" height="14" fill="#2a9d8f"/><text x="770.1" y="421" font-size="10">2.54x</text><text x="10" y="446" font-size="11">Malloc_Deep_Churn&lt;8, 2000, am, afree&gt;</text><rect x="520" y="434" width="224.9" height="14" fill="#2a9d8f"/><text x="750.9" y="445" font-size="10">2.34x</text></svg>