<svg xmlns="http://www.w3.org/2000/svg" width="1600" height="700"><rect width="100%" height="100%" fill="white"/><text x="20" y="32" font-size="20">Multithread Throughput (GiB/s)</text><line x1="80" y1="540" x2="1560" y2="540" stroke="#999"/><rect x="97.8" y="488.6" width="51.8" height="51.4" fill="#1d3557"/><rect x="161.4" y="528.9" width="51.8" height="11.1" fill="#e63946"/><text x="82.0" y="554" font-size="8" transform="rotate(45 82.0,554)">am_multithread&lt;8, 1000&gt;/t8</text><rect x="245.8" y="194.0" width="51.8" height="346.0" fill="#1d3557"/><rect x="309.4" y="454.4" width="51.8" height="85.6" fill="#e63946"/><text x="230.0" y="554" font-size="8" transform="rotate(45 230.0,554)">am_multithread&lt;64, 1000&gt;/t8</text><rect x="393.8" y="532.2" width="51.8" height="7.8" fill="#1d3557"/><rect x="457.4" y="538.4" width="51.8" height="1.6" fill="#e63946"/><text x="378.0" y="554" font-size="8" transform="rotate(45 378.0,554)">am_multithread&lt;8, 1000&gt;/t1</text><rect x="541.8" y="480.6" width="51.8" height="59.4" fill="#1d3557"/><rect x="605.4" y="527.7" width="51.8" height="12.3" fill="#e63946"/><text x="526.0" y="554" font-size="8" transform="rotate(45 526.0,554)">am_multithread&lt;64, 1000&gt;/t1</text><rect x="689.8" y="524.1" width="51.8" height="15.9" fill="#1d3557"/><rect x="753.4" y="536.9" width="51.8" height="3.1" fill="#e63946"/><text x="674.0" y="554" font-size="8" transform="rotate(45 674.0,554)">am_multithread&lt;8, 1000&gt;/t2</text><rect x="837.8" y="421.1" width="51.8" height="118.9" fill="#1d3557"/><rect x="901.4" y="515.9" width="51.8" height="24.1" fill="#e63946"/><text x="822.0" y="554" font-size="8" transform="rotate(45 822.0,554)">am_multithread&lt;64, 1000&gt;/t2</text><rect x="985.8" y="475.4" width="51.8" height="64.6" fill="#1d3557"/><rect x="1049.4" y="518.2" width="51.8" height="21.8" fill="#e63946"/><text x="970.0" y="554" font-size="8" transform="rotate(45 970.0,554)">am_multithread&lt;8, 1000&gt;/t16</text><rect x="1133.8" y="509.7" width="51.8" height="30.3" fill="#1d3557"/><rect x="1197.4" y="533.8" width="51.8" height="6.2" fill="#e63946"/><text x="1118.0" y="554" font-size="8" transform="rotate(45 1118.0,554)">am_multithread&lt;8, 1000&gt;/t4</text><rect x="1281.8" y="307.7" width="51.8" height="232.3" fill="#1d3557"/><rect x="1345.4" y="491.8" width="51.8" height="48.2" fill="#e63946"/><text x="1266.0" y="554" font-size="8" transform="rotate(45 1266.0,554)">am_multithread&lt;64, 1000&gt;/t4</text><rect x="1429.8" y="121.8" width="51.8" height="418.2" fill="#1d3557"/><rect x="1493.4" y="376.0" width="51.8" height="164.0" fill="#e63946"/><text x="1414.0" y="554" font-size="8" transform="rotate(45 1414.0,554)">am_multithread&lt;64, 1000&gt;/t16</text><text x="20" y="52" font-size="11" fill="#1d3557">am</text><text x="50" y="52" font-size="11" fill="#e63946">std</text></svg>